<svg width="97" height="48" viewBox="0 0 97 48" fill="none" xmlns="http://www.w3.org/2000/svg">
<path d="M5.02557 0.636363V37H0.835227V0.636363H5.02557ZM23.78 37.5682C21.3179 37.5682 19.1576 36.9822 17.2992 35.8104C15.4526 34.6385 14.0085 32.9991 12.9668 30.892C11.937 28.785 11.4221 26.3229 11.4221 23.5057C11.4221 20.6648 11.937 18.1849 12.9668 16.0661C14.0085 13.9472 15.4526 12.3018 17.2992 11.13C19.1576 9.9581 21.3179 9.37216 23.78 9.37216C26.2421 9.37216 28.3965 9.9581 30.2431 11.13C32.1015 12.3018 33.5456 13.9472 34.5755 16.0661C35.6171 18.1849 36.138 20.6648 36.138 23.5057C36.138 26.3229 35.6171 28.785 34.5755 30.892C33.5456 32.9991 32.1015 34.6385 30.2431 35.8104C28.3965 36.9822 26.2421 37.5682 23.78 37.5682ZM23.78 33.804C25.6503 33.804 27.1891 33.3246 28.3965 32.3658C29.6039 31.407 30.4976 30.1463 31.0776 28.5838C31.6576 27.0213 31.9476 25.3286 31.9476 23.5057C31.9476 21.6828 31.6576 19.9841 31.0776 18.4098C30.4976 16.8355 29.6039 15.563 28.3965 14.5923C27.1891 13.6217 25.6503 13.1364 23.78 13.1364C21.9097 13.1364 20.3709 13.6217 19.1635 14.5923C17.9561 15.563 17.0624 16.8355 16.4824 18.4098C15.9024 19.9841 15.6124 21.6828 15.6124 23.5057C15.6124 25.3286 15.9024 27.0213 16.4824 28.5838C17.0624 30.1463 17.9561 31.407 19.1635 32.3658C20.3709 33.3246 21.9097 33.804 23.78 33.804ZM53.543 47.7955C51.5188 47.7955 49.7788 47.535 48.3228 47.0142C46.8668 46.5052 45.6535 45.8305 44.6829 44.9901C43.7241 44.1615 42.9606 43.2737 42.3924 42.3267L45.7305 39.983C46.1093 40.4801 46.5887 41.0483 47.1687 41.6875C47.7487 42.3385 48.5418 42.9008 49.5479 43.3743C50.5659 43.8596 51.8976 44.1023 53.543 44.1023C55.7447 44.1023 57.5617 43.5696 58.994 42.5043C60.4263 41.4389 61.1424 39.7699 61.1424 37.4972V31.9574H60.7873C60.4795 32.4545 60.0415 33.0701 59.4734 33.804C58.917 34.526 58.1121 35.1712 57.0586 35.7393C56.0169 36.2957 54.6083 36.5739 52.8327 36.5739C50.631 36.5739 48.6542 36.053 46.9023 35.0114C45.1623 33.9697 43.7833 32.4545 42.7653 30.4659C41.7591 28.4773 41.256 26.0625 41.256 23.2216C41.256 20.428 41.7473 17.9955 42.7298 15.924C43.7122 13.8407 45.0794 12.2308 46.8313 11.0945C48.5832 9.94626 50.6074 9.37216 52.9038 9.37216C54.6793 9.37216 56.088 9.66809 57.1296 10.2599C58.1831 10.84 58.988 11.5028 59.5444 12.2486C60.1126 12.9825 60.5505 13.5862 60.8583 14.0597H61.2844V9.72727H65.3327V37.7812C65.3327 40.125 64.8001 42.0308 63.7347 43.4986C62.6812 44.9782 61.2608 46.0613 59.4734 46.7479C57.6978 47.4463 55.721 47.7955 53.543 47.7955ZM53.4009 32.8097C55.0818 32.8097 56.5022 32.425 57.6623 31.6555C58.8223 30.8861 59.7042 29.7794 60.3079 28.3352C60.9116 26.8911 61.2134 25.1629 61.2134 23.1506C61.2134 21.1856 60.9175 19.4515 60.3256 17.9482C59.7338 16.4448 58.8578 15.267 57.6978 14.4148C56.5378 13.5625 55.1055 13.1364 53.4009 13.1364C51.6254 13.1364 50.1457 13.5862 48.962 14.4858C47.7901 15.3854 46.9083 16.5928 46.3164 18.108C45.7364 19.6231 45.4464 21.304 45.4464 23.1506C45.4464 25.0445 45.7423 26.7195 46.3342 28.1754C46.9379 29.6196 47.8256 30.7559 48.9975 31.5845C50.1812 32.4013 51.649 32.8097 53.4009 32.8097ZM84.0827 37.5682C81.6206 37.5682 79.4603 36.9822 77.6019 35.8104C75.7553 34.6385 74.3112 32.9991 73.2695 30.892C72.2397 28.785 71.7248 26.3229 71.7248 23.5057C71.7248 20.6648 72.2397 18.1849 73.2695 16.0661C74.3112 13.9472 75.7553 12.3018 77.6019 11.13C79.4603 9.9581 81.6206 9.37216 84.0827 9.37216C86.5449 9.37216 88.6992 9.9581 90.5458 11.13C92.4042 12.3018 93.8484 13.9472 94.8782 16.0661C95.9199 18.1849 96.4407 20.6648 96.4407 23.5057C96.4407 26.3229 95.9199 28.785 94.8782 30.892C93.8484 32.9991 92.4042 34.6385 90.5458 35.8104C88.6992 36.9822 86.5449 37.5682 84.0827 37.5682ZM84.0827 33.804C85.953 33.804 87.4918 33.3246 88.6992 32.3658C89.9066 31.407 90.8003 30.1463 91.3803 28.5838C91.9603 27.0213 92.2504 25.3286 92.2504 23.5057C92.2504 21.6828 91.9603 19.9841 91.3803 18.4098C90.8003 16.8355 89.9066 15.563 88.6992 14.5923C87.4918 13.6217 85.953 13.1364 84.0827 13.1364C82.2125 13.1364 80.6737 13.6217 79.4663 14.5923C78.2589 15.563 77.3652 16.8355 76.7852 18.4098C76.2051 19.9841 75.9151 21.6828 75.9151 23.5057C75.9151 25.3286 76.2051 27.0213 76.7852 28.5838C77.3652 30.1463 78.2589 31.407 79.4663 32.3658C80.6737 33.3246 82.2125 33.804 84.0827 33.804Z" fill="white"/>
</svg>
